<svg id="Capa_1" enable-background="new 0 0 512.101 512.101" height="512" viewBox="0 0 512.101 512.101" width="512" xmlns="http://www.w3.org/2000/svg"><g><path d="m28.154 157.018-28.029-10.698c24.195-63.394 70.853-115.358 131.379-146.32l13.662 26.709c-53.911 27.577-95.467 73.855-117.012 130.309z" fill="#fb3"/><path d="m84.229 178.406-28.028-10.697c18.894-49.505 55.328-90.082 102.59-114.258l13.662 26.709c-40.648 20.792-71.979 55.683-88.224 98.246z" fill="#fb3"/><path d="m483.947 157.018c-21.545-56.453-63.101-102.731-117.012-130.309l13.662-26.709c60.526 30.962 107.184 82.926 131.378 146.32z" fill="#ff884d"/><path d="m427.872 178.406c-16.245-42.563-47.576-77.454-88.224-98.246l13.662-26.709c47.262 24.176 83.696 64.753 102.59 114.258z" fill="#ff884d"/><path d="m255.981 90.101-16.484 154.168 16.484 265.153c35.462-7.892 65.498-32.742 79.454-67.385l59.111-146.724c39.553-98.177-32.72-205.212-138.565-205.212z" fill="#ffdecf"/><path d="m255.981 90.101c-87.378 0-156.103 74.665-148.876 161.743l13.083 157.641c4.813 57.996 53.289 102.615 111.484 102.615 8.294 0 16.434-.927 24.309-2.68z" fill="#ffeee5"/><path d="m337.597 187.331c-.439-.685-.887-1.366-1.345-2.044-17.966-26.607-46.484-42.076-78.46-42.64-.605-.011-1.208-.009-1.811-.008l-16.484 118.113 89.821 34.057c26.009-30.143 29.766-73.961 8.279-107.478z" fill="#ffbeaa"/><path d="m185.683 172.859c-19.21 20.296-28.532 46.865-26.227 74.641l1.822 21.949 94.703-8.696v-118.114c-26.616.022-51.961 10.847-70.298 30.22z" fill="#ffdecf"/><path d="m255.981 244.268-16.484 65.075 16.484 93.869c18.923-6.373 33.767-22.304 38.148-42.741 4.656-21.72 14.703-41.919 29.215-58.738l5.974-6.924c-24.281-31.456-49.764-45.755-73.337-50.541z" fill="#e09380"/><path d="m161.278 269.448c24.533 8.118 42.241 31.224 42.241 58.479 0 20.349-9.872 38.386-25.081 49.603 11.444 17.031 30.745 28.234 52.566 28.605l5.523.094c6.769.115 13.324-.953 19.454-3.017v-158.944c-52-10.558-94.703 25.18-94.703 25.18z" fill="#ffbeaa"/></g></svg>