<svg height="512" viewBox="0 0 44 58" width="512" xmlns="http://www.w3.org/2000/svg"><g id="Page-1" fill="none" fill-rule="evenodd"><g id="058---Elderly-Couple" fill-rule="nonzero" transform="translate(0 -1)"><path id="Shape" d="m22 12.5c.0014245.2021174-.0220863.4036388-.07.6-.3203085 1.1472577-1.3792482 1.9301314-2.57 1.9-.0955594-.0002666-.1872818.0375763-.2548527.1051473-.067571.0675709-.1054139.1592933-.1051473.2548527v.64c.0041332 2.1643906-1.7164872 3.938226-3.88 4h-.03c-.3752435.0101369-.7267444.1858874-.96.48-.0404404.0524357-.0838445.1025174-.13.15-.7540636.8700155-1.8486795 1.3698269-3 1.3698269-1.15132051 0-2.24593638-.4998114-3-1.3698269-.04615549-.0474826-.08955959-.0975643-.13-.15-.23325564-.2941126-.5847565-.4698631-.96-.48h-.03c-2.16351281-.061774-3.88413319-1.8356094-3.88-4v-.64c.00026655-.0955594-.0375763-.1872818-.10514727-.2548527-.06757096-.067571-.15929333-.1054139-.25485273-.1051473-1.19075176.0301314-2.24969154-.7527423-2.57-1.9-.04791371-.1963612-.07142454-.3978826-.07-.6 0-1.3807119 1.11928813-2.5 2.5-2.5h2.5v1c0 1.6568542 1.34314575 3 3 3s3-1.3431458 3-3c0 1.6568542 1.3431458 2.9999999 3 2.9999999s3-1.3431457 3-2.9999999v-1h2.5c1.3807119 0 2.5 1.1192881 2.5 2.5z" fill="#fdd7ad"/><path id="Shape" d="m22 7.5v5c0-1.3807119-1.1192881-2.5-2.5-2.5h-2.5v-2.5c0-1.38071187 1.1192881-2.5 2.5-2.5s2.5 1.11928813 2.5 2.5z" fill="#ecf0f1"/><path id="Shape" d="m5 7.5v2.5h-2.5c-1.38071187 0-2.5 1.1192881-2.5000129 2.5l.0000129-5c-.00213408-.66369315.26057266-1.30081863.72987702-1.77012298.46930435-.46930436 1.10642983-.7320111 1.77012298-.72987702.66352989-.00159823 1.3003437.26128061 1.76953155.73046845.46918784.46918785.73206668 1.10600166.73046845 1.76953155z" fill="#ecf0f1"/><path id="Shape" d="m11 10v1c0 1.6568542-1.34314575 3-3 3s-3-1.3431458-3-3v-1z" fill="#84b5cb"/><path id="Shape" d="m18.47 5.22c-.8930195.407932-1.4670238 1.29822429-1.47 2.28v2.5h-12v-2.5c-.00297623-.98177571-.57698047-1.872068-1.47-2.28 1.24-1.59 3.48-3.22 7.47-3.22s6.23 1.63 7.47 3.22z" fill="#fdd7ad"/><path id="Shape" d="m13 7.237c-.0892003.00068124-.1780587-.01109922-.264-.035-1.142611-.26698673-2.331389-.26698673-3.474 0-.53295478.14525089-1.08274911-.16904522-1.228-.702s.16904522-1.08274911.702-1.228c1.4870724-.36099035 3.0389276-.36099035 4.526 0 .4835689.13141535.7952064.60045192.7289781 1.09716375-.0662282.49671184-.4898705.86771109-.9909781.86783625z" fill="#f9c795"/><path id="Shape" d="m17 10v1c0 1.6568542-1.3431458 2.9999999-3 2.9999999s-3-1.3431457-3-2.9999999v-1z" fill="#84b5cb"/><path id="Shape" d="m17 9h-12c-.55228475 0-1 .44771525-1 1v1c-.00739616 1.6680192 1.02536392 3.1639686 2.5877074 3.748285 1.56234348.5843165 3.32329979.1332171 4.4122926-1.130285 1.0889928 1.2635021 2.8499491 1.7146015 4.4122926 1.130285 1.5623435-.5843164 2.5951036-2.0802658 2.5877074-3.748285v-1c0-.55228475-.4477153-1-1-1zm-9 4c-1.1045695 0-2-.8954305-2-2h4c0 1.1045695-.8954305 2-2 2zm6 0c-1.1045695 0-2-.8954305-2-2h4c0 1.1045695-.8954305 2-2 2z" fill="#a56a43"/><path id="Shape" d="m11 26c-.942683.568621-1.71876986 1.3757513-2.25 2.34-.22522256.3613133-.60361286.599479-1.02679365.6462824s-.84447108-.1029183-1.14320635-.4062824l-2.58-2.58c.57377473-1.7388072 2.17008814-2.9360423 4-3 0 .7956495.31607052 1.5587112.87867966 2.1213203.56260913.5626092 1.32567084.8786797 2.12132034.8786797z" fill="#ecf0f1"/><g fill="#fdd7ad"><path id="Shape" d="m44 18.5c.0014245.2021174-.0220863.4036388-.07.6-.3203085 1.1472577-1.3792482 1.9301314-2.57 1.9h-.01c-.1943464.0014817-.3530454.1557724-.36.35-.1479815 2.098114-1.5959308 3.8780517-3.62 4.45-.1473867.0419794-.28619.1096883-.41.2-.191162.1162347-.360404.2651676-.5.44-.1371524.1747578-.291234.3355386-.46.48-1.7408476 1.4398677-4.2591524 1.4398677-6 0-.168766-.1444614-.3228476-.3052422-.46-.48-.139596-.1748324-.308838-.3237653-.5-.44-.12381-.0903117-.2626133-.1580206-.41-.2-2.0240692-.5719483-3.4720185-2.351886-3.62-4.45-.0069546-.1942276-.1656536-.3485183-.36-.35h-.01c-1.1907518.0301314-2.2496915-.7527423-2.57-1.9-.0479137-.1963612-.0714245-.3978826-.07-.6 0-.6630412.2633921-1.298926.732233-1.767767.468841-.4688409 1.1047258-.732233 1.767767-.732233h2.5c0 1.6568542 1.3431458 3 3 3s3-1.3431458 3-3c0 1.6568542 1.3431458 3 3 3s3-1.3431458 3-3h2.5c1.3807119 0 2.5 1.1192881 2.5 2.5z"/><path id="Shape" d="m39 12.84v2.16h-12v-2.16c.0548905-1.6198577 1.4099833-2.88997771 3.03-2.84.7926635-.00410677 1.5574002.2924967 2.14.83h.01c.4613877.4318295 1.1786123.4318295 1.64 0h.01c1.2120936-1.10656997 3.0679064-1.10656997 4.28 0 .5635978.5168493.8861471 1.2453035.89 2.01z"/><path id="Shape" d="m39 15v1c0 1.6568542-1.3431458 3-3 3s-3-1.3431458-3-3c0 1.6568542-1.3431458 3-3 3s-3-1.3431458-3-3v-1z"/></g><path id="Shape" d="m38.35 5.13c-.4443916-.08924184-.8967449-.13280179-1.35-.13h-8c-.4532551-.00280179-.9056084.04075816-1.35.13.6364894-2.4332923 2.8348399-4.13057154 5.35-4.13057154s4.7135106 1.69727924 5.35 4.13057154z" fill="#bdc3c7"/><path id="Shape" d="m33 15v1c0 1.6568542-1.3431458 3-3 3s-3-1.3431458-3-3v-1z" fill="#84b5cb"/><path id="Shape" d="m39 15v1c0 1.6568542-1.3431458 3-3 3s-3-1.3431458-3-3v-1z" fill="#84b5cb"/><path id="Shape" d="m30 28.9999675v17.0000325h-6c-1.1032019-.0032948-1.9967052-.8967981-2-2v-7c-.0001329-2.1220657.8413942-4.1575542 2.34-5.66.12-.12.24-.23.37-.34 1.457898-1.293669 3.3408938-2.0055767 5.29-2.0000325z" fill="#3b97d3"/><path id="Shape" d="m44 37v7c-.0032948 1.1032019-.8967981 1.9967052-2 2h-6v-17c4.4159938.0055097 7.9944903 3.5840062 8 8z" fill="#3b97d3"/><path id="Shape" d="m42 28.5c.0024054.8638645-.4445328 1.6668382-1.18 2.12-1.3851414-1.0547137-3.0790171-1.6240246-4.82-1.62v-2.08c.168766-.1444614.3228476-.3052422.46-.48.139596-.1748324.308838-.3237653.5-.44h2.54c.6636932-.0021341 1.3008186.2605727 1.770123.729877.4693043.4693044.7320111 1.1064298.729877 1.770123z" fill="#fdd7ad"/><path id="Shape" d="m14 20.63v2.37c0 1.6568542-1.3431458 3-3 3-1.65685425 0-3-1.3431458-3-3v-2.37c.75406362.8700155 1.84867949 1.3698269 3 1.3698269 1.1513205 0 2.2459364-.4998114 3-1.3698269z" fill="#f9c795"/><path id="Shape" d="m18 26-2.58 2.58c-.2987353.3033641-.7200256.4530858-1.1432064.4062824-.4231807-.0468034-.801571-.2849691-1.0267936-.6462824-.5312301-.9642487-1.307317-1.771379-2.25-2.34 1.6568542 0 3-1.3431458 3-3 1.8299119.0639577 3.4262253 1.2611928 4 3z" fill="#ecf0f1"/><path id="Shape" d="m30 26.92v2.08c-1.9491062-.0055767-3.832102.706331-5.29 2l-6.21 1.61c-.8820508.2317345-1.4977347 1.0280189-1.5 1.94v9.45h-12v3h-3c-1.10320187-.0032948-1.9967052-.8967981-2-2v-15c0-2.209139 1.790861-4 4-4l2.58 2.58c.29873527.3033641.72002556.4530858 1.14320635.4062824s.80157109-.2849691 1.02679365-.6462824c.53123014-.9642487 1.307317-1.771379 2.25-2.34.942683.568621 1.7187699 1.3757513 2.25 2.34.2252226.3613133.6036129.599479 1.0267936.6462824.4231808.0468034.8444711-.1029183 1.1432064-.4062824l2.58-2.58h11.04c.191162.1162347.360404.2651676.5.44.1371524.1747578.291234.3355386.46.48z" fill="#ff5364"/><path id="Shape" d="m36 26.92v5.81c-.9879068.1939615-1.9933362.2844502-3 .27-1.0066638.0144502-2.0120932-.0760385-3-.27v-5.81c1.7408476 1.4398677 4.2591524 1.4398677 6 0z" fill="#f9c795"/><path id="Shape" d="m36 32.73v13.27h-6v-13.27c.9879068.1939615 1.9933362.2844502 3 .27 1.0066638.0144502 2.0120932-.0760385 3-.27z" fill="#3d324c"/><path id="Shape" d="m40 46v11c-.0032948 1.1032019-.8967981 1.9967052-2 2h-10c-1.1032019-.0032948-1.9967052-.8967981-2-2v-11z" fill="#7d6599"/><path id="Shape" d="m32 46v7c0 .5522847-.4477153 1-1 1s-1-.4477153-1-1v-7z" fill="#5d4c72"/><path id="Shape" d="m36 46v7c0 .5522847-.4477153 1-1 1s-1-.4477153-1-1v-7z" fill="#5d4c72"/><path id="Shape" d="m44 12 .0000001 6.5c-.0000001-1.3807119-1.1192882-2.5-2.5000001-2.5h-2.5v-3.16c-.0038529-.7646965-.3264022-1.4931507-.89-2.01-1.2120936-1.10656997-3.0679064-1.10656997-4.28 0h-.01c-.4613877.4318295-1.1786123.4318295-1.64 0h-.01c-.5825998-.5375033-1.3473365-.83410677-2.14-.83-1.6200167-.04997771-2.9751095 1.2201423-3.03 2.84v3.16h-2.5c-1.3807119 0-2.5 1.1192881-2.5000001 2.5l.0000001-6.5c-.000675-3.3460441 2.3667716-6.22469155 5.65-6.87.4443916-.08924184.8967449-.13280179 1.35-.13h8c.4532551-.00280179.9056084.04075816 1.35.13 3.2832284.64530845 5.650675 3.5239559 5.65 6.87z" fill="#ecf0f1"/><path id="Shape" d="m39 14h-12c-.5522847 0-1 .4477153-1 1v1c-.0073962 1.6680192 1.0253639 3.1639686 2.5877074 3.748285 1.5623435.5843165 3.3232998.1332171 4.4122926-1.130285 1.0889928 1.2635021 2.8499491 1.7146015 4.4122926 1.130285 1.5623435-.5843164 2.5951036-2.0802658 2.5877074-3.748285v-1c0-.5522847-.4477153-1-1-1zm-9 4c-1.1045695 0-2-.8954305-2-2h4c0 1.1045695-.8954305 2-2 2zm6 0c-1.1045695 0-2-.8954305-2-2h4c0 1.1045695-.8954305 2-2 2z" fill="#a56a43"/><path id="Shape" d="m6 45c-.55228475 0-1-.4477153-1-1v-11c0-.5522847.44771525-1 1-1s1 .4477153 1 1v11c0 .5522847-.44771525 1-1 1z" fill="#df4d60"/><path id="Shape" d="m11 44v15h-5c-.55228475 0-1-.4477153-1-1v-14z" fill="#a56a43"/><path id="Shape" d="m17 44v14c0 .5522847-.4477153 1-1 1h-5v-15z" fill="#805333"/></g></g></svg>