<svg id="Capa_1" enable-background="new 0 0 512 512" height="512" viewBox="0 0 512 512" width="512" xmlns="http://www.w3.org/2000/svg"><g><path d="m482 173.667v180.333h-45v30h75v-210.333l-15-10z" fill="#d7cfe6"/><path d="m0 384h75v-30h-45v-180.333l-15.667-10-14.333 10z" fill="#ece6f2"/><path d="m75 90v-30c-41.355 0-75 33.645-75 75v38.667h30v-38.667c0-24.813 20.187-45 45-45z" fill="#246bb3"/><path d="m512 135c0-41.355-33.645-75-75-75v30c24.813 0 45 20.187 45 45v38.667h30z" fill="#194d80"/><path d="m369 286h-113l-10 15 10 15h113z" fill="#0f244d"/><path d="m301.471 376v-30h-45.471l-10 15 10 15z" fill="#0f244d"/><path d="m143 286h113v30h-113z" fill="#194d80"/><path d="m210.529 346h45.471v30h-45.471z" fill="#194d80"/><circle cx="143" cy="369" fill="#246bb3" r="83"/><circle cx="143" cy="369" fill="#194d80" r="53"/><circle cx="369" cy="369" fill="#194d80" r="83"/><circle cx="369" cy="369" fill="#0f244d" r="53"/></g></svg>