<svg id="Capa_1" enable-background="new 0 0 512 512" height="512" viewBox="0 0 512 512" width="512" xmlns="http://www.w3.org/2000/svg"><g><path d="m422.07 211.01c.407-5.172.613-10.372.613-15.51 0-107.799-87.701-195.5-195.5-195.5l-20 195.5 20 316.5h105.196v-90h90.304v-73.333h57.634z" fill="#ffdecf"/><path d="m31.683 195.5c0 53.324 21.898 104.4 60.304 141.2v175.3h135.196v-512c-107.799 0-195.5 87.701-195.5 195.5z" fill="#ffeee5"/><g fill="#ff4d4d"><path d="m332.683 195.5h30c0-74.715-60.785-135.5-135.5-135.5l-10 15 10 15c58.173 0 105.5 47.327 105.5 105.5z"/><path d="m272.683 195.5c0 30.974-18.755 57.639-45.5 69.268l-10 15.233 10 16.648c43.604-12.956 75.5-53.394 75.5-101.148 0-41.631-33.869-75.5-75.5-75.5l-10 15 10 15c25.089-.001 45.5 20.41 45.5 45.499z"/><path d="m242.683 195.5h-15.5l-10 16.283 10 17.884c9.492-8.346 15.5-20.564 15.5-34.167z"/></g><path d="m197.183 271c-41.631 0-75.5-33.869-75.5-75.5 0-58.173 47.327-105.5 105.5-105.5v-30c-74.715 0-135.5 60.785-135.5 135.5 0 58.173 47.327 105.5 105.5 105.5 10.419 0 20.487-1.525 30-4.352v-31.88c-9.202 4-19.343 6.232-30 6.232z" fill="#ff884d"/><path d="m151.683 195.5c0 25.089 20.411 45.5 45.5 45.5 11.486 0 21.984-4.287 30-11.334v-34.166h-14.5c0 8.547-6.953 15.5-15.5 15.5s-15.5-6.953-15.5-15.5c0-25.089 20.411-45.5 45.5-45.5v-30c-41.631 0-75.5 33.869-75.5 75.5z" fill="#ff884d"/></g></svg>