<svg id="Capa_1" enable-background="new 0 0 512.009 512.009" height="512" viewBox="0 0 512.009 512.009" width="512" xmlns="http://www.w3.org/2000/svg"><g><path d="m339.847 408.338-30.443-13.743c-23.299-10.518-47.317-18.506-71.889-23.944l-20 51.593 20 52.266h58.66z" fill="#d7cfe6"/><path d="m158.025 362.009h-41.85l55.635 112.5h65.705v-103.859c-25.942-5.742-52.501-8.641-79.49-8.641z" fill="#ece6f2"/><path d="m266.176 182.009h30v75h-30z" fill="#ece6f2"/><path d="m326.176 167.009h-88.661l-10 15 10 15h88.661z" fill="#194d80"/><path d="m165.792 167.009h71.724v30h-71.724z" fill="#246bb3"/><path d="m376.147 308.676-24.943 16.667 50.394 75.421 33.278-4.196z" fill="#d7cfe6"/><path d="m404.876 381.568h60v30h-60z" fill="#0f244d" transform="matrix(.832 -.556 .556 .832 -147.033 308.449)"/><path d="m303.676 314.908h30v109.202h-30z" fill="#194d80" transform="matrix(.962 -.275 .275 .962 -89.251 101.764)"/><path d="m103.855 331.998h30v45.011h-30z" fill="#246bb3"/><path d="m103.855 332.009h-47.679v-30h60z" fill="#ece6f2"/><circle cx="118.855" cy="437.009" fill="#194d80" r="75"/><circle cx="118.855" cy="437.009" fill="#d7cfe6" r="45"/><circle cx="333.676" cy="459.509" fill="#0f244d" r="52.5"/><circle cx="333.676" cy="459.509" fill="#d7cfe6" r="22.5"/><path d="m217.515 282.009 20 49.99h141.15v-29.99z" fill="#198080"/><path d="m97.89 302.009 5.965 29.99h133.66v-49.99z" fill="#24b3b3"/><path d="m378.665 302.009-.001-60.01h-141.149l-20 30.005 20 30.005z" fill="#24b3b3"/><path d="m237.515 241.999h-44.505l-17.782-89.397c-3.722-18.71-17.02-33.122-33.78-39.162 13.173-11.994 19.944-30.398 16.222-49.108l-4.39-22.068c-5.648-28.392-33.341-46.897-61.734-41.249-28.391 5.647-46.896 33.34-41.248 61.733l4.39 22.068c3.722 18.711 17.02 33.122 33.78 39.162-13.174 11.994-19.944 30.398-16.222 49.108l25.644 128.923h139.626v-60.01z" fill="#2ee6e6"/></g></svg>