<?xml version="1.0" encoding="utf-8"?>
<!-- Generator: Adobe Illustrator 22.0.0, SVG Export Plug-In . SVG Version: 6.00 Build 0)  -->
<svg version="1.1" id="Layer_1" xmlns="http://www.w3.org/2000/svg" xmlns:xlink="http://www.w3.org/1999/xlink" x="0px" y="0px"
	 viewBox="0 0 400 400" style="enable-background:new 0 0 400 400;" xml:space="preserve">
<style type="text/css">
	.st0{fill:#FFBB7D;}
	.st1{opacity:0.4;fill:#FFBB7D;}
	.st2{fill:#1B2A47;}
	.st3{opacity:0.5;fill:#3F76AB;}
	.st4{fill:#3290C2;}
	.st5{opacity:0.3;fill:#3F668A;}
	.st6{fill:#212121;}
	.st7{opacity:0.5;fill:#FFBB7D;}
	.st8{fill:#B2B2B2;}
	.st9{fill:#EA4A49;}
	.st10{fill:#DADADA;}
	.st11{opacity:0.4;fill:#F69A62;}
	.st12{fill:#C6C6C5;}
	.st13{fill:#FFFFFF;}
	.st14{opacity:0.5;}
	.st15{fill:#F29105;}
	.st16{fill:#E5007E;}
</style>
<g>
	<path d="M108.6,284.8c-2.3,5.9-0.3,13.2,7.3,15.8c4.9,3.7,7.8,8.9,14,10.7c7.1,2.1,11-0.8,9.4-4.7c-2.6-6.3-7.3-10.3-12.6-17.9
		c-1.8-2.5-5.1-7.5-5.1-7.5l-9.6-3.4L108.6,284.8z"/>
	<path class="st0" d="M130.4,219.6c-1.9,17.8-5.6,35.4-7.7,60.6c0.4,5.8,11,16,5.7,18.1c-3,1.1-7.4-2.1-11.1-6.4
		c-3.5-4-6.3-9-6.5-11.8c1.9-21.1-6-41.2-2.8-62.1l-2.2-11.7l-6.5-34.4l1.3-29.4l22.1-11.4C134,163.6,136.2,202,130.4,219.6z"/>
	<path class="st1" d="M121.8,216.7c-10,15.3-8.1,44.2-4.5,75.2c-3.5-4-6.3-9-6.5-11.8c1.9-21.1-6-41.2-2.8-62.1l-2.2-11.7l16,9.5
		L121.8,216.7z"/>
	<path class="st0" d="M126,138.6c-0.7,6.6-2.3,13.3-4.8,19.1c-3.7,8.7-9.1,15.3-15.4,16.2c-0.7,26.5,1.4,53.7-5.9,63.5
		c-3.8,19.4-9.6,42.6-8.1,58.9c0.1,0.6,2.5,8,4.7,11.9c1.5,2.3,5.4,9.7,3.6,9.7c-4.8,0-17.5-8.7-22-13c-0.8-0.7-1.3-1.3-1.5-1.7
		c1.1-3.6,2.4-6.1,2.3-6.9c-1.2-28.4-8.2-55,1.5-70.6l-0.7-5.5L74,175.4c-3.4-17.8,0.5-26.2,4.7-30.8c5-5.3,10.3-5.1,11.6-6.1
		l34.5-3.4L126,138.6z"/>
	<path d="M76.5,303.3c-0.9,2.2-0.5,7.5,0.6,9c4.6,6,14.7,16,26.2,15.9c5.6-1,4.7-3.1,2.6-7.4c-1.8-3.6-6.2-7.1-9.5-12.5
		c-0.8-1.3,2.8,5.2,0.3,5.9c-6.1,1.6-16.3-7.4-18.2-16.8L76.5,303.3z"/>
	<path class="st1" d="M88.5,226.6c-10.7,16.3-7.9,48.1-3.8,81.3l-6.7-2.9c-0.8-0.7-1.3-1.3-1.5-1.7c1.1-3.6,2.4-6.1,2.3-6.9
		c-1.2-28.4-8.2-55,1.5-70.6l-0.7-5.5l9,5.3L88.5,226.6z"/>
	<path class="st2" d="M133,212.5c-3.2,6.2-24.8,15.7-44.5,13.2c-4.3-0.5-8.6-1.6-12.5-3.5c2.6-34.1-12.3-64.8,2.7-77.5l3.9,0.2
		l45.3,2C135.5,164.5,134.2,181.1,133,212.5z"/>
	<path class="st3" d="M88.6,225.7c-4.3-0.5-8.6-1.6-12.5-3.5c2.6-34.1-12.3-64.8,2.7-77.5l3.9,0.2l12.7,10.7
		C80.4,166.2,84.9,196.3,88.6,225.7z"/>
	<path class="st0" d="M130.1,93.4l12.4,29.3c16.6,6.9,35.6,7.1,48.5,8.4l6.9-9.6l-42.4-12.8l-12.4-31L130.1,93.4z"/>
	<path class="st4" d="M144.8,117.3c-2.4,12.3-16.8,9.9-16.8,9.9c-2,7.2-1.9,13.7,0,19.7c-16.2,10.3-33.6,15.4-49.2-2.2
		c1.8-2.2,5-5.5,5.7-10.7c1.7-12.1-1.8-24.1-1.2-35.1c0.2-4,2.7-12.3,4.1-16c4.7-5.2,9.5-7.8,15.7-9.9l22.5-4.6
		c6.9,0,16-1.1,17.4,9.3c1.2,8.7-2.5,13.4-2.6,17.2C140.2,103.8,146.2,110.1,144.8,117.3z"/>
	<path class="st5" d="M128,146.9c-16.2,10.3-33.6,15.4-49.2-2.2c0,0,5-5,5.7-10.7c1.6-12.2-1.8-24.1-1.2-35.1
		c0-0.1,12.3,22.8,12.3,22.8s0.1,20.7,17.9,18.2c8.5-1.2,9.7-15.1,9.7-15.1l4.7,2.4C126,134.4,126.1,140.9,128,146.9z"/>
	<path d="M94.8,57.6c0.9,4.4,4,8.5,8.3,10.1c4.3,1.6,9.5,0.3,12.3-3.3c1.9-2.5,2.5-5.9,1.9-9.1c-0.6-3.1-2.4-5.9-4.7-8.2
		c-2-1.9-4.5-3.5-7.2-3.8c-3.4-0.3-6.8,1.5-8.8,4.4C94.6,50.6,94.1,54.2,94.8,57.6z"/>
	<path class="st0" d="M108.9,59.7c-0.6,5.4-2.4,9.8-5.7,13.2c2.7,9.6,16.7,17.4,17,5.9l5.5-14.3L108.9,59.7z"/>
	<path class="st1" d="M114.1,67.2c-2.1,8.8,2.6,23.5,9.6,23.5c10.2,0,6.4-21.4,6.4-21.4L114.1,67.2z"/>
	<path class="st0" d="M106.4,48.8c1.8-9,7.7-14.5,17.1-15.1c10.2,1,16.7,6.3,19.5,15.9c0.8,6.5-0.7,11.7-3.8,16.2l0.4,6.1
		c0.1,0.9-0.6,1.8-1.5,2l-1.3,0.3c-1.7,3.5-4.1,5.8-7.5,6.5c-3.5,0.7-7.5-1.6-11.6-4.4c-1.2-0.8-2-2-2.3-3.4l-1.9-7.7l-5.3-2.1
		l-0.8-2C106.1,57.1,105.6,52.9,106.4,48.8z"/>
	<path class="st6" d="M108.3,63.5c3.1,2.7,6.8,4.2,11,4.8c1,0.1,2.1-0.2,2.8-0.9c6.3-6.1,14.9-7.8,21.1-13.5c0.4-0.4,0.6-1,0.6-1.6
		c-1-10.1-7.9-19.2-20.5-19.2c-11.9,0-16.8,8.4-17.7,18.4C105.3,55.8,106.2,59.8,108.3,63.5z"/>
	<path class="st0" d="M118.1,67.9c0-1.4-0.5-3-1.6-4.1c-1.1-1.1-2.7-1.5-3.8-0.8c-0.7,0.5-1.1,1.4-1.1,2.3c-0.1,0.9,0.1,1.9,0.3,2.9
		c0.2,0.8,0.4,1.7,0.9,2.3c0.9,1.3,2.7,1.6,3.8,0.9C117.6,70.8,118.1,69.3,118.1,67.9z"/>
	<g>
		<path class="st0" d="M87.5,82.8c-10.9,9.9-19.2,22.4-25.3,37.1c-5.5,10.4-9.9,31.3-8.3,43.5c1.7-1.1,4.2-1.1,7.6,0.4
			c5.6-14.5,11.2-28.6,11.8-36.8l19-20.8C105.3,92,96.3,76.9,87.5,82.8z"/>
		<path class="st0" d="M71.3,179.8c-0.7,0.2-1.6-0.1-2.3-1.1c-1.2-2.5-2.7-4.7-5.5-4.7c-0.7,0.7-1.1,1.8-1.2,3.1l0,0.3
			c-0.2,3,0.5,7.1,1.3,11.3c0,0.7-0.3,1.1-0.7,1.2c-0.5,0.2-1.3,0-1.7-0.5c-0.2,1-1.6,1-2.2-0.2l-0.8-1.8c-0.5,1.1-1.8,0.3-1.9-0.6
			l-1.5-3.8c-1.2-2.1-1.9-4.5-2.4-7.1c-0.1-0.4-0.1-0.7-0.2-1.1c0-4,0.6-7.8,1.8-11.3c1.8-2.7,4.6-2.3,7.6,0.4l3.4,3.5
			c3.2,3.1,4.3,6.5,7.4,11.1C72.4,179.1,71.9,179.6,71.3,179.8z"/>
		<path class="st7" d="M62.8,190c-0.5,0.2-1.3,0-1.7-0.5c-0.2,1-1.6,1-2.2-0.2l-0.8-1.8c-0.5,1.1-1.8,0.3-1.9-0.6l-1.5-3.8
			c-1.2-2.1-1.9-4.5-2.4-7.1c1.7,1.5,4,1.6,6.5,1.1C59.1,181.8,60.5,188.4,62.8,190z"/>
		<path class="st7" d="M71.2,179.7c-0.7,0.2-1.6-0.1-2.3-1.1c-1.2-2.5-2.7-4.7-5.5-4.7c-0.7,0.7-1.1,1.8-1.2,3.1l0.4-4.7
			C67.6,172.8,69.4,178.2,71.2,179.7z"/>
	</g>
</g>
<g>
	<polygon class="st8" points="160.1,310.2 216.7,342.8 227.2,336.8 170.6,304.1 	"/>
	<path class="st9" d="M218.4,136.1l-12.2-14.5c-8.1-12.7-22.4,1.9-16.6,18.2l8.9,20.7L218.4,136.1z"/>
	<g>
		<g>
			<path d="M234.9,169.9c-23.5,3.1-49.8,31.9-58.8,64.2c-7.1,25.3-1.4,45.3,12.6,51.3c1.6,0.7,3.4,1.2,5.3,1.5
				c2.6,0.4,5.3,0.4,8.2,0c5.1-0.7,10.3-2.6,15.5-5.4c7-3.9,13.8-9.6,20.1-16.5c0.8-0.9,1.7-1.9,2.5-2.9
				c8.1-9.7,14.9-21.6,19.2-34.2c0.4-1.2,0.8-2.4,1.1-3.5c0.2-0.6,0.3-1.1,0.5-1.7c2.2-7.7,3.1-14.9,3.1-21.4
				c-0.1-9.7-2.6-17.7-7.1-23.3c-1.2-1.5-2.6-2.8-4.1-4C248.2,170.5,242.1,168.9,234.9,169.9z M210.5,280.2l1.2-4.2
				c-0.9,0.3-1.8,0.6-2.7,0.9l-1,3.6c-5.4,0.5-10.3-0.8-14.2-3.9c-2.5-1-4.8-2.5-6.7-4.6c-0.5-0.6-1-1.2-1.5-1.8
				c-0.8-1-1.5-2.2-2.1-3.5c-0.1-0.3-0.3-0.6-0.4-0.8c-4.5-9.9-3.6-24.1,1.4-38.3c0,0,0-0.1,0-0.1c3.6-10,9.3-20.1,16.7-28.7
				c0-0.1,0.1-0.1,0.1-0.2c0.5-0.6,1.1-1.2,1.6-1.8c9.9-10.8,20.6-16.8,30-17.9c1.2-0.1,2.4-0.2,3.5-0.1c0.8,0,1.6,0.1,2.4,0.2
				c3.4,0.4,6.5,1.7,9.2,3.8c4,1.6,7.3,4.5,9.7,8.8l-2.3,2.5c0.3,0.9,0.5,1.8,0.7,2.7l2.7-3c3.6,8.2,3.6,19.2,0.6,30.7l-5.5,0.7
				c-0.4,1.2-0.7,2.4-1.2,3.6l5.6-0.7c-3.5,11.6-9.9,23.4-18.6,33.2l-2.5-5c-0.8,1-1.6,1.9-2.5,2.8l2.4,4.9
				C228.4,273.3,218.9,278.7,210.5,280.2z"/>
			<g>
				<path class="st10" d="M239.4,176.6l-2.6,0.3l-0.3,1.1l-0.2,0.7l-0.9,3l-10,35.8c0,0-2.2,8-2.2,8l-0.4,1.4l-0.7,2.5l-0.3,1
					c0,0-0.4,1.5-0.4,1.5l-0.3,1l-0.7,2.5l-0.3,1.2l-2.2,8l-9,32.2l-1,3.6l-1,3.7l-0.4,1.3l2.6-0.3l0.4-1.3l1-3.7l1.2-4.2l8.8-31.7
					l2.3-8c0,0,0.3-1.2,0.3-1.2l0.7-2.5l0.3-1c0,0,0.4-1.5,0.4-1.5l0.3-1l0.7-2.5l0.4-1.4l2.3-8l10-35.8l0.7-2.5l0.3-1.2
					L239.4,176.6z"/>
				<path class="st10" d="M207,195l-2.5,2.7l0.4,0.8l1.2,2.4l11.3,22.9l2.5,5.1c0,0,0.4,0.9,0.4,0.9l0.8,1.6l0.3,0.7l0.5,0.9
					l0.3,0.7l0.8,1.6l0.4,0.8l2.5,5.2l8.9,18l2.4,4.9l0.4,0.9l0.7,1.5l0.4,0.8l2.5-2.7l-0.4-0.8l-0.8-1.6l-0.4-0.8l-2.5-5l-8.9-17.9
					l-2.5-5.1l-0.4-0.8l-0.8-1.6l-0.3-0.7l-0.5-0.9l-0.3-0.7l-0.8-1.6l-0.4-0.9l-2.5-5.1l-11.3-22.9l-1.2-2.4L207,195z"/>
				<path class="st10" d="M262.9,224.1l-0.8,0.1l-1.6,0.2l-1.1,0.1l-5.5,0.7l-20.6,2.7l-5.9,0.8l-0.9,0.1c0,0-1.8,0.2-1.8,0.2
					l-0.8,0.1l-1,0.1c0,0-0.8,0.1-0.8,0.1l-1.8,0.3l-1,0.1l-5.7,0.8l-26,3.5l-2.7,0.4l-0.9,0.1l-1,3.6l0.9-0.1l2.7-0.4l26-3.5
					l5.8-0.8l0.9-0.1l1.8-0.2l0.8-0.1l1.1-0.1l0.8-0.1l1.8-0.2l0.9-0.1l5.9-0.8l20.4-2.7l5.6-0.7l1-0.1c0,0,1.7-0.2,1.7-0.2l0.8-0.1
					L262.9,224.1z"/>
				<path class="st10" d="M261,187.8l-0.8,0.8l-2.6,2.9l-2.3,2.5l-23.2,25.3l-5.7,6.2l-1,1.1l-1.8,1.9l-0.7,0.8c0,0-1,1.1-1,1.1
					c0,0-0.7,0.8-0.7,0.8l-1.8,1.9l-0.9,1l-5.6,6.1l-25.5,27.8l-1.9,2l-0.7,0.8l-1,1.1l1.1,2.3l1-1.1l1.2-1.3l1.5-1.6l25.5-27.8
					l5.7-6.2l0.9-0.9l1.8-2l0.7-0.8l1-1.1c0,0,0.7-0.8,0.7-0.8l1.8-1.9c0,0,1-1,1-1l5.8-6.3l22.8-24.8l2.7-3l2.6-2.8l0.8-0.9
					L261,187.8z"/>
				<path class="st10" d="M204.9,194.4c-1.3,1.4-2.5,2.8-3.7,4.2c-0.1,0-0.1,0.1-0.1,0.2c-7.1,8.7-12.8,18.7-16.7,28.7
					c0,0,0,0.1,0,0.1c-6.8,17.7-8.1,35.7-2.1,47.8c2.8,5.6,6.8,9.4,11.7,11.4c12.7,5.2,30.9-1.6,47.2-19.3
					c22.5-24.5,32.6-60.8,22.7-81c-1.8-3.6-4.1-6.5-6.9-8.6C244.5,168.3,223.4,174.3,204.9,194.4z M235.5,181.8
					c0.9-0.2,1.7-0.3,2.6-0.3c3.6-0.3,6.9,0.1,9.9,1.3c4,1.6,7.3,4.5,9.7,8.8c0.2,0.3,0.4,0.7,0.6,1.1c0.2,0.4,0.4,0.8,0.5,1.2
					c3.6,8.2,3.6,19.2,0.6,30.7c-0.3,1.2-0.7,2.4-1,3.5c-3.5,11.6-9.9,23.4-18.6,33.2c-0.4,0.4-0.8,0.9-1.1,1.3
					c-0.5,0.5-0.9,1-1.4,1.5c-8.9,9.2-18.4,14.7-26.9,16.2c-0.9,0.1-1.7,0.3-2.6,0.3c-5.4,0.5-10.3-0.8-14.2-3.9
					c-2-1.6-3.8-3.7-5.2-6.2c-0.2-0.3-0.4-0.7-0.6-1.1c-0.2-0.4-0.4-0.7-0.5-1.1c-3.6-8.2-3.6-19.1-0.7-30.5c0.3-1.2,0.6-2.4,1-3.6
					c3.5-11.5,9.8-23.3,18.4-33.2c0.4-0.5,0.9-1,1.3-1.5c0.4-0.4,0.8-0.9,1.2-1.3C217.5,188.8,227,183.3,235.5,181.8z"/>
				<path d="M252.9,174c-3.9-1.7-8.4-2.2-13.5-1.6c-23.5,3.1-49.8,31.9-58.8,64.2c-6.2,22.4-2.6,40.6,8.1,48.7
					c4.7,3.6,10.8,5.1,18,4.2c23.5-3.1,49.8-31.8,58.8-64.2C272.6,200,266.9,180,252.9,174z M260.2,188.7c0.4,0.7,0.8,1.5,1.1,2.3
					c1.3,3,2.3,6.5,2.7,10.3c0.8,6.6,0.2,14.4-2,22.9c-0.1,0.6-0.3,1.1-0.5,1.7c-0.2,0.6-0.4,1.3-0.6,1.9c-4,13.4-11.4,26-20.1,35.9
					c-0.8,1-1.7,1.9-2.5,2.8c-6.5,6.8-13.6,12-20.8,15.1c-2.8,1.2-5.5,2-8.3,2.5c-0.4,0.1-0.8,0.1-1.2,0.2c-0.5,0.1-0.9,0.1-1.4,0.1
					c-9.5,0.8-16.8-3.4-21-11c-0.4-0.7-0.8-1.5-1.1-2.3c-0.7-1.6-1.3-3.3-1.8-5.2c-2-7.6-1.8-17.2,0.9-27.9c0.2-0.6,0.3-1.2,0.5-1.9
					c0.2-0.6,0.3-1.1,0.5-1.7c4-13.4,11.3-26,20-35.9c0.8-1,1.7-1.9,2.5-2.8c7.9-8.3,16.8-14.3,25.4-16.9c1.2-0.4,2.4-0.6,3.7-0.9
					c0.4-0.1,0.9-0.2,1.4-0.2c0.4-0.1,0.8-0.1,1.2-0.1C248.7,176.8,256,181,260.2,188.7z"/>
				<path class="st10" d="M247.9,182.7c2.3,1.8,4.3,4.2,5.8,7.3c0.6,1.3,1.2,2.6,1.6,4l2.3-2.5C255.2,187.2,251.9,184.3,247.9,182.7
					z"/>
				<path class="st10" d="M258.8,193.8l-2.7,3c1.9,8.2,1,18.3-2.1,28.5l5.5-0.7C262.3,213,262.3,202,258.8,193.8z"/>
				<path class="st10" d="M258.4,228.1l-5.6,0.7c-3.4,9.6-8.6,19.1-15.4,27.5l2.5,5C248.5,251.5,254.9,239.6,258.4,228.1z"/>
				<path class="st10" d="M208.9,276.9c-5.6,1.6-10.8,1.5-15.2-0.3c3.9,3.1,8.8,4.4,14.2,3.9L208.9,276.9z"/>
				<path class="st10" d="M234.9,259.1c-0.2,0.3-0.5,0.6-0.7,0.8c-7.3,8-15.2,13.4-22.5,16.1l-1.2,4.2c8.5-1.5,18-7,26.9-16.2
					L234.9,259.1z"/>
				<path class="st10" d="M227.4,239.7c5.4-5.9,7.8-14.5,5.4-19.4c-2.4-4.8-8.7-4-14.1,1.9c-5.4,5.9-7.8,14.5-5.4,19.4
					C215.7,246.4,222,245.6,227.4,239.7z"/>
				<path d="M224.9,234.9c5.2-6.7,2.1-13.1-3.8-7.7C215.9,233.8,219,240.2,224.9,234.9z"/>
			</g>
		</g>
		<g>
			<g>
				<path d="M334.8,134.5c0-1.8,1.3-2.6,2.9-1.7c1.6,0.9,2.9,3.2,2.9,5c0,1.8-1.3,2.6-2.9,1.7C336.1,138.6,334.8,136.3,334.8,134.5z
					"/>
				<rect x="314.6" y="138.2" transform="matrix(0.866 -0.5 0.5 0.866 -27.3535 182.5798)" width="24.8" height="8.2"/>
				<path d="M313.4,146.9c0-1.8,1.3-2.6,2.9-1.7c1.6,0.9,2.9,3.2,2.9,5c0,1.8-1.3,2.6-2.9,1.7C314.7,151,313.4,148.7,313.4,146.9z"
					/>
			</g>
			<g>
				<path d="M334.8,134.5c0-1.8,1.3-2.6,2.9-1.7c1.6,0.9,2.9,3.2,2.9,5c0,1.8-1.3,2.6-2.9,1.7C336.1,138.6,334.8,136.3,334.8,134.5z
					"/>
				<rect x="314.6" y="138.2" transform="matrix(0.866 -0.5 0.5 0.866 -27.3535 182.5798)" width="24.8" height="8.2"/>
				<path d="M313.4,146.9c0-1.8,1.3-2.6,2.9-1.7c1.6,0.9,2.9,3.2,2.9,5c0,1.8-1.3,2.6-2.9,1.7C314.7,151,313.4,148.7,313.4,146.9z"
					/>
			</g>
		</g>
		<g>
			<g>
				<path d="M275.8,100c0-1.8,1.3-2.6,2.9-1.7c1.6,0.9,2.9,3.2,2.9,5c0,1.8-1.3,2.6-2.9,1.7C277.1,104.1,275.8,101.9,275.8,100z"/>
				<rect x="255.6" y="103.8" transform="matrix(0.866 -0.5 0.5 0.866 -18.0513 148.4492)" width="24.8" height="8.2"/>
				<path d="M254.3,112.4c0-1.8,1.3-2.6,2.9-1.7c1.6,0.9,2.9,3.2,2.9,5c0,1.8-1.3,2.6-2.9,1.7C255.6,116.5,254.3,114.3,254.3,112.4z
					"/>
			</g>
			<g>
				<path d="M275.8,100c0-1.8,1.3-2.6,2.9-1.7c1.6,0.9,2.9,3.2,2.9,5c0,1.8-1.3,2.6-2.9,1.7C277.1,104.1,275.8,101.9,275.8,100z"/>
				<rect x="255.6" y="103.8" transform="matrix(0.866 -0.5 0.5 0.866 -18.0513 148.4492)" width="24.8" height="8.2"/>
				<path d="M254.3,112.4c0-1.8,1.3-2.6,2.9-1.7c1.6,0.9,2.9,3.2,2.9,5c0,1.8-1.3,2.6-2.9,1.7C255.6,116.5,254.3,114.3,254.3,112.4z
					"/>
			</g>
		</g>
		<g>
			<path d="M173.9,280c1.2,1,2.1,2.4,2.7,4.2c0.4,1.4,0.7,2.9,0.7,4.7c0,3.5-0.9,7.4-2.5,11c-2.7,6.1-7.2,11.7-12.3,14.6
				c-2,1.2-4,1.8-5.8,2c-1.3,0.1-2.6,0-3.7-0.5c-0.7-0.3-1.4-0.7-2-1.2c-2.1-1.7-3.4-4.8-3.4-8.9c0-4.7,1.7-10,4.3-14.6
				c0.7-1.2,1.4-2.3,2.2-3.4c2.4-3.2,5.2-5.9,8.3-7.7C167,277.7,171.2,277.8,173.9,280z"/>
			<g>
				<g>
					<path class="st10" d="M179.9,291.3c0-9-6.3-12.7-14.1-8.2c-7.8,4.5-14.1,15.5-14.1,24.5c0,9,6.3,12.7,14.1,8.2
						C173.6,311.2,179.9,300.3,179.9,291.3z"/>
					<path d="M165.8,311.7c-5.9,3.4-10.7,0.6-10.7-6.2c0-6.8,4.8-15.1,10.7-18.5c5.9-3.4,10.7-0.6,10.7,6.2
						C176.4,300.1,171.6,308.4,165.8,311.7L165.8,311.7z M165.8,316.6c8.2-4.7,14.8-16.2,14.8-25.7c0-9.5-6.6-13.3-14.8-8.6
						c-8.2,4.7-14.8,16.2-14.8,25.7C150.9,317.4,157.6,321.3,165.8,316.6L165.8,316.6z"/>
				</g>
				<path d="M169.1,301.4c3.7-7.8-1.8-10.9-6.7-3.9C158.7,305.3,164.2,308.5,169.1,301.4z"/>
			</g>
		</g>
		<g>
			<path class="st10" d="M166.5,299.9c-0.5,0.3-1.1,0-1.1-0.6l0-51.4l63.5-37.3l0,31l-3.6,2.7l0-26.7L169.1,250l0,45.5
				C169.1,297.2,168.1,298.9,166.5,299.9z"/>
			<g>
				<path class="st10" d="M228.3,214.7l-1.2,0.7l0-4.2l1.2-0.7c2.8-1.6,5.1-5.4,5.4-8.8l6.8-70.6c-0.3-6.4,4.2-12.9,9.7-15.5
					l4.9-2.8c2.4-1.7,4.1,1.6,2.5,2.8l-7.3,4.3c-3.1,1.8-5.7,6-6.1,9.7l-6.8,70.6C236.8,205.7,232.9,212,228.3,214.7z"/>
				<path class="st10" d="M287.6,249.4l-1.2,0.7l0-4.2l1.2-0.7c2.8-1.6,5.1-5.4,5.4-8.8l6.8-70.6c-0.3-6.4,4.2-12.9,9.7-15.5
					l4.9-2.8c2.4-1.7,4.1,1.6,2.5,2.8l-7.3,4.3c-3.1,1.8-5.7,6-6.1,9.7l-6.8,70.6C296.2,240.5,292.3,246.8,287.6,249.4z"/>
				<polygon class="st10" points="228.4,344.8 224.8,346.9 224.8,282.1 288.3,244.8 282.7,273 279.1,275.7 284.6,251.7 228.4,284.2 
									"/>
				<path d="M169.7,236.9l50.6-29.9c2.4-1.4,4.5-4.7,4.8-7.7l5.2-58.6c0.5-4.9,4.1-10.3,8.1-12l2.4-1l59.3,34.2l-6.8,73.7
					c-0.4,4.4-3.5,9.3-7.1,11.4l-67.5,39l-51.5-30.4C157.4,250.9,164.5,239.9,169.7,236.9z"/>
			</g>
		</g>
	</g>
	<g>
		<path d="M186.3,307.5v4.7c-2.9,2.7-5.8,5.3-8.1,5.1c-4,8.9-9.7,13.7-16.7,15c-7.5,0.2-10.5-2.8-10.5-7.2
			c0.6-6.8,10.8-11.9,12.5-19.2L186.3,307.5z"/>
		<path class="st4" d="M176.5,314.1c2.3-0.5,4.3-1.2,6-2.2c4-2.2,6.3-5.6,7.1-10.4c2.7-23.6,3.1-33.4-0.3-46.8
			c15.9-14.7,44-14.1,49.3-35c0.1-0.5,0.2-1.1,0.3-1.5c0.4-2.7,0.1-4.7-0.6-7.2c-0.5-1.9-1.2-4.2-2.1-7.5l-21.3-0.8l-5.4-0.2
			c-10.3,4.2-16,7.9-39.2,31.1c-1.2,1.2-2.4,2.4-3.7,3.7c-3.5,4.5-2.6,8.1-2.4,11.1c0,0,0.6,21.7,0,33.7c-0.6,12-1.6,23.4-1.6,23.4
			C161.7,312.8,168.8,314.2,176.5,314.1z"/>
		<path class="st5" d="M182.5,311.9c4-2.2,6.3-5.6,7.1-10.4c2.7-23.6,3.1-33.4-0.3-46.8c15.9-14.7,44-14.1,49.3-35
			c0.1-0.5,0.2-1.1,0.3-1.5c0.4-2.7,0.1-4.7-0.6-7.2c-1.9,2.9-6.7,7.4-13,12.2c-1.4,1.1-9.5,0.2-13-5.8c0.5,6.7,0.7,11.5-1.9,13.1
			c-11.3,7.2-21.2,14.6-31,16.4C188.5,262.7,187.6,287.6,182.5,311.9z"/>
		<path d="M220.5,325.2v5.5c-1.2,2.5-4.1,5.6-6.6,6.6c-4.5,8.7-10.7,13.2-18.4,13.9c-6.8,0.6-11.1-1.7-11.6-6
			c0.7-9.4,13.1-12.4,14.6-20.1H220.5z"/>
		<path class="st4" d="M208.3,334c1.6-0.3,3.2-0.9,4.7-1.6c0.8-0.4,1.5-0.8,2.2-1.2c3.8-2.4,6.7-6.1,7.4-10.5
			c2.7-23.6,4-41.7,0.6-55.1c15.9-14.7,36.5-19.8,41.8-40.7c0.9-4.5,0.2-10.2-1.2-16.4c-0.4-2-0.9-4-1.5-6.1l-4.9,0.2l-26.9,1
			l-0.6,0l-4.1,3.5l0.6,10.9l-11.2,13.1l-15,19.6c-1.6,2.6-2.4,5.6-2.3,8.6c0,0,0.6,21.7,0,33.7c-0.6,12-3.1,30.7-3.1,30.7
			C194,331,200.5,334.1,208.3,334z"/>
		<path class="st5" d="M214.3,331.2h0.9c3.8-2.4,6.7-6.1,7.4-10.5c2.7-23.6,4-41.7,0.6-55.1c15.9-14.7,36.5-19.8,41.8-40.7
			c0.9-4.5,0.2-10.2-1.2-16.4c-0.4-2-0.9-4-1.5-6.1l-4.9,0.2c2.1,9.7,0.8,18.7-4.9,26.9c-7.4,13.2-22.9,23.5-37,32.6
			C218.2,283.5,219.2,306.5,214.3,331.2z"/>
		<path class="st9" d="M194.8,151c0.1,26.8,14.1,42.8,14.7,51.5c14.1,11,36.1,21.7,47.9,14.2c2.7-1.7,4.9-4.4,6.4-8.2
			c0.2-22.5-3.1-34.7-7-43c-3.1-6.8-6.6-10.9-8.9-15.7c-9.3-6.5-19.7-9.6-29.4-13.1c-12.6-2.7-9.5-3.6-16.7-2.7
			C197.3,138.1,194.7,143.9,194.8,151z"/>
		<path class="st9" d="M257.4,216.7c2.7-1.7,4.9-4.4,6.4-8.2c0.2-22.5-3.1-34.7-7-43h-15.4C253.2,179.9,258.6,197,257.4,216.7z"/>
		<g>
			<path class="st0" d="M229.6,143.3l-4.5-9.4l-18.7,9.3l1.3,10.1C211.4,167.2,231.9,155,229.6,143.3z"/>
			<path class="st11" d="M205.1,147.4c-1.7,8-4.2,17.6,0.8,18.1c3.2,0,9.3-5.7,12.1-15.5c2.3-7.9,3.2-11.7,3.2-11.7L205.1,147.4z"/>
			<path class="st0" d="M219.5,141.1l-6.3,5.4c-1.3,1.4-3.1,2.2-5.1,2.1c-3.7-0.2-7.1-1.1-10.3-2.5c-1.5-0.9-2.5-2.1-2.6-3.6
				c-0.1-1.6,1.3-9,1.3-9s-1.1-1-1.3-1.9c-0.1-0.9,0.1-1.7,0.8-2.1c0.7-0.5,4.9-4.8,4.9-4.8l0.2-5.7c2.7-8.4,9.4-13.1,21.7-12.6
				c10.4,0.9,15.6,7.4,14.9,18.4C235.9,138.4,230.5,142.4,219.5,141.1z"/>
			<path d="M230.1,141.9c-1.8,0.8-3.5,1-5.2,0.6c-0.9-0.2-1.5-1-1.6-1.9l-0.5-5.5l-4.4-1.4c-0.8-0.3-1.2-1.1-1-1.8l0.6-1.9
				c0.4-1.4-0.2-2.8-1.5-3.5c-6.8-3.5-13.1-7-14.3-10.4c-0.1-0.4-0.1-0.8,0-1.2c5.8-13.1,36.5-13.6,36.5,8.2
				C238.7,131,235.9,137.1,230.1,141.9z"/>
			<path class="st0" d="M224.6,132.6c1.2,0.7,1.5,2.4,1.1,3.7c-0.4,1.3-1.3,2.4-2.2,3.5c-0.5,0.6-1.1,1.3-1.8,1.6
				c-0.7,0.4-1.7,0.5-2.3,0c-0.6-0.4-0.9-1.1-0.9-1.8s0.1-1.4,0.3-2.1c0.4-1.5,0.8-3,1.8-4.1C221.5,132.4,223.3,131.8,224.6,132.6z"
				/>
		</g>
	</g>
	<g>
		<path d="M232.7,313.7c1.2,1,2.1,2.4,2.7,4.2c0.4,1.4,0.7,2.9,0.7,4.7c0,3.5-0.9,7.4-2.5,11c-2.7,6.1-7.2,11.7-12.3,14.6
			c-2,1.2-4,1.8-5.8,2c-1.3,0.1-2.6,0-3.7-0.5c-0.7-0.3-1.4-0.7-2-1.2c-2.1-1.7-3.4-4.8-3.4-8.9c0-4.7,1.7-10,4.3-14.6
			c0.7-1.2,1.4-2.3,2.2-3.4c2.4-3.2,5.2-5.9,8.3-7.7C225.9,311.4,230,311.5,232.7,313.7z"/>
		<g>
			<g>
				<path class="st10" d="M238.8,325c0-9-6.3-12.7-14.1-8.2c-7.8,4.5-14.1,15.5-14.1,24.5c0,9,6.3,12.7,14.1,8.2
					C232.4,345,238.8,334,238.8,325z"/>
				<path d="M224.6,345.5c-5.9,3.4-10.7,0.6-10.7-6.2c0-6.8,4.8-15.1,10.7-18.5c5.9-3.4,10.7-0.6,10.7,6.2
					C235.3,333.8,230.5,342.1,224.6,345.5L224.6,345.5z M224.6,350.3c8.2-4.7,14.8-16.2,14.8-25.7c0-9.5-6.6-13.3-14.8-8.6
					c-8.2,4.7-14.8,16.2-14.8,25.7C209.8,351.2,216.4,355,224.6,350.3L224.6,350.3z"/>
			</g>
			<path d="M228,335.1c3.7-7.8-1.8-10.9-6.7-3.9C217.6,339,223.1,342.2,228,335.1z"/>
		</g>
	</g>
	<g>
		<path d="M293.7,203.6c-23.5,3.1-49.8,31.9-58.8,64.2c-7.1,25.3-1.4,45.3,12.6,51.3c1.6,0.7,3.4,1.2,5.3,1.5c2.6,0.4,5.3,0.4,8.2,0
			c5.1-0.7,10.3-2.6,15.5-5.4c7-3.9,13.8-9.6,20.1-16.5c0.8-0.9,1.7-1.9,2.5-2.9c8.1-9.7,14.9-21.6,19.2-34.2
			c0.4-1.2,0.8-2.4,1.1-3.5c0.2-0.6,0.3-1.1,0.5-1.7c2.2-7.7,3.1-14.9,3.1-21.4c-0.1-9.7-2.6-17.7-7.1-23.3c-1.2-1.5-2.6-2.8-4.1-4
			C307,204.2,300.9,202.6,293.7,203.6z M269.3,313.9l1.2-4.2c-0.9,0.3-1.8,0.6-2.7,0.9l-1,3.6c-5.4,0.5-10.3-0.8-14.2-3.9
			c-2.5-1-4.8-2.5-6.7-4.6c-0.5-0.6-1-1.2-1.5-1.8c-0.8-1-1.5-2.2-2.1-3.5c-0.1-0.3-0.3-0.6-0.4-0.8c-4.5-9.9-3.6-24.1,1.4-38.3
			c0,0,0-0.1,0-0.1c3.6-10,9.3-20.1,16.7-28.7c0-0.1,0.1-0.1,0.1-0.2c0.5-0.6,1.1-1.2,1.6-1.8c9.9-10.8,20.6-16.8,30-17.9
			c1.2-0.1,2.4-0.2,3.5-0.1c0.8,0,1.6,0.1,2.4,0.2c3.4,0.4,6.5,1.7,9.2,3.8c4,1.6,7.3,4.5,9.7,8.8l-2.3,2.5c0.3,0.9,0.5,1.8,0.7,2.7
			l2.7-3c3.6,8.2,3.6,19.2,0.6,30.7l-5.5,0.7c-0.4,1.2-0.7,2.4-1.2,3.6l5.6-0.7c-3.5,11.6-9.9,23.4-18.6,33.2l-2.5-5
			c-0.8,1-1.6,1.9-2.5,2.8l2.4,4.9C287.3,307,277.8,312.4,269.3,313.9z"/>
		<g>
			<path class="st12" d="M298.3,210.3l-2.6,0.3l-0.3,1.1l-0.2,0.7l-0.9,3l-10,35.8c0,0-2.2,8-2.2,8l-0.4,1.4l-0.7,2.5l-0.3,1
				c0,0-0.4,1.5-0.4,1.5l-0.3,1l-0.7,2.5l-0.3,1.2l-2.2,8l-9,32.2l-1,3.6l-1,3.7l-0.4,1.3l2.6-0.3l0.4-1.3l1-3.7l1.2-4.2l8.8-31.7
				l2.3-8c0,0,0.3-1.2,0.3-1.2l0.7-2.5l0.3-1c0,0,0.4-1.5,0.4-1.5l0.3-1l0.7-2.5l0.4-1.4l2.3-8l10-35.8l0.7-2.5l0.3-1.2L298.3,210.3
				z"/>
			<path class="st12" d="M265.9,228.7l-2.5,2.7l0.4,0.8l1.2,2.4l11.3,22.9l2.5,5.1c0,0,0.4,0.9,0.4,0.9l0.8,1.6l0.3,0.7l0.5,0.9
				l0.3,0.7l0.8,1.6l0.4,0.8l2.5,5.1l8.9,18l2.4,4.9l0.4,0.9l0.7,1.5l0.4,0.8l2.5-2.7l-0.4-0.8l-0.8-1.6l-0.4-0.8l-2.5-5l-8.9-17.9
				l-2.5-5.1l-0.4-0.8l-0.8-1.6l-0.3-0.7l-0.5-0.9l-0.3-0.7l-0.8-1.6l-0.4-0.9l-2.5-5.1l-11.3-22.9l-1.2-2.4L265.9,228.7z"/>
			<path class="st12" d="M321.8,257.8l-0.8,0.1l-1.6,0.2l-1.1,0.1l-5.5,0.7l-20.6,2.7l-5.9,0.8l-0.9,0.1c0,0-1.8,0.2-1.8,0.2
				l-0.8,0.1l-1,0.1c0,0-0.8,0.1-0.8,0.1l-1.8,0.3l-1,0.1l-5.7,0.8l-26,3.5l-2.7,0.4l-0.9,0.1l-1,3.6l0.9-0.1l2.7-0.4l26-3.5
				l5.8-0.8l0.9-0.1l1.8-0.2l0.8-0.1l1.1-0.1l0.8-0.1l1.8-0.2l0.9-0.1l5.9-0.8l20.4-2.7l5.6-0.7l1-0.1c0,0,1.7-0.2,1.7-0.2l0.8-0.1
				L321.8,257.8z"/>
			<path class="st12" d="M319.9,221.5l-0.8,0.8l-2.6,2.9l-2.3,2.5L291,253l-5.7,6.2l-1,1.1l-1.8,1.9l-0.7,0.8c0,0-1,1.1-1,1.1
				c0,0-0.7,0.8-0.7,0.8l-1.8,1.9l-0.9,1l-5.6,6.1l-25.5,27.8l-1.9,2l-0.7,0.8l-1,1.1l1.1,2.3l1-1.1l1.2-1.3l1.5-1.6l25.5-27.8
				l5.7-6.2l0.9-0.9l1.8-2l0.7-0.8l1-1.1c0,0,0.7-0.8,0.7-0.8l1.8-1.9c0,0,1-1,1-1l5.8-6.3l22.8-24.8l2.7-3l2.6-2.8l0.8-0.9
				L319.9,221.5z"/>
			<path class="st13" d="M263.8,228.1c-1.3,1.4-2.5,2.8-3.7,4.2c-0.1,0-0.1,0.1-0.1,0.2c-7.1,8.7-12.8,18.7-16.7,28.7
				c0,0,0,0.1,0,0.1c-6.8,17.7-8.1,35.7-2.1,47.8c2.8,5.6,6.8,9.4,11.7,11.4c12.7,5.2,30.9-1.6,47.2-19.3
				c22.5-24.5,32.6-60.8,22.7-81c-1.8-3.6-4.1-6.5-6.9-8.6C303.3,202,282.2,208,263.8,228.1z M294.3,215.5c0.9-0.2,1.7-0.3,2.6-0.3
				c3.6-0.3,6.9,0.1,9.9,1.3c4,1.6,7.3,4.5,9.7,8.8c0.2,0.3,0.4,0.7,0.6,1.1c0.2,0.4,0.4,0.8,0.5,1.2c3.6,8.2,3.6,19.2,0.6,30.7
				c-0.3,1.2-0.7,2.4-1,3.5c-3.5,11.6-9.9,23.4-18.6,33.2c-0.4,0.4-0.8,0.9-1.1,1.3c-0.5,0.5-0.9,1-1.4,1.5
				c-8.9,9.2-18.4,14.7-26.9,16.2c-0.9,0.1-1.7,0.3-2.6,0.3c-5.4,0.5-10.3-0.8-14.2-3.9c-2-1.6-3.8-3.7-5.2-6.2
				c-0.2-0.3-0.4-0.7-0.6-1.1c-0.2-0.4-0.4-0.8-0.5-1.1c-3.6-8.2-3.6-19.1-0.7-30.5c0.3-1.2,0.6-2.4,1-3.6
				c3.5-11.5,9.8-23.3,18.4-33.2c0.4-0.5,0.9-1,1.3-1.5c0.4-0.4,0.8-0.9,1.2-1.3C276.3,222.5,285.8,217,294.3,215.5z"/>
			<path d="M311.7,207.7c-3.9-1.7-8.4-2.2-13.5-1.6c-23.5,3.1-49.8,31.9-58.8,64.2c-6.2,22.4-2.6,40.6,8.1,48.7
				c4.7,3.6,10.8,5.1,18,4.2c23.5-3.1,49.8-31.8,58.8-64.2C331.5,233.7,325.8,213.7,311.7,207.7z M319.1,222.4
				c0.4,0.7,0.8,1.5,1.1,2.3c1.3,3,2.3,6.5,2.7,10.3c0.8,6.6,0.2,14.4-2,22.9c-0.1,0.6-0.3,1.1-0.5,1.7c-0.2,0.6-0.4,1.3-0.6,1.9
				c-4,13.4-11.4,26-20.1,35.9c-0.8,1-1.7,1.9-2.5,2.8c-6.5,6.8-13.6,12-20.8,15.1c-2.8,1.2-5.5,2-8.3,2.5c-0.4,0.1-0.8,0.1-1.2,0.2
				c-0.5,0.1-0.9,0.1-1.4,0.1c-9.5,0.8-16.8-3.4-21-11c-0.4-0.7-0.8-1.5-1.1-2.3c-0.7-1.6-1.3-3.3-1.8-5.2c-2-7.6-1.8-17.2,0.9-27.9
				c0.2-0.6,0.3-1.2,0.5-1.9c0.2-0.6,0.3-1.1,0.5-1.7c4-13.4,11.3-26,20-35.9c0.8-1,1.7-1.9,2.5-2.8c7.9-8.3,16.8-14.3,25.4-16.9
				c1.2-0.4,2.4-0.6,3.7-0.9c0.4-0.1,0.9-0.2,1.4-0.2c0.4-0.1,0.8-0.1,1.2-0.1C307.5,210.5,314.9,214.7,319.1,222.4z"/>
			<path class="st8" d="M306.8,216.4c2.3,1.8,4.3,4.2,5.8,7.3c0.6,1.3,1.2,2.6,1.6,4l2.3-2.5C314.1,220.9,310.8,218,306.8,216.4z"/>
			<path class="st8" d="M317.6,227.5l-2.7,3c1.9,8.2,1,18.3-2.1,28.5l5.5-0.7C321.2,246.7,321.2,235.7,317.6,227.5z"/>
			<path class="st8" d="M317.3,261.8l-5.6,0.7c-3.4,9.6-8.6,19.1-15.4,27.5l2.5,5C307.3,285.2,313.7,273.4,317.3,261.8z"/>
			<path class="st8" d="M267.8,310.6c-5.6,1.6-10.8,1.5-15.2-0.3c3.9,3.1,8.8,4.4,14.2,3.9L267.8,310.6z"/>
			<path class="st8" d="M293.7,292.8c-0.2,0.3-0.5,0.6-0.7,0.8c-7.4,8-15.2,13.4-22.5,16.1l-1.2,4.2c8.5-1.5,18-7,26.9-16.2
				L293.7,292.8z"/>
			<path class="st12" d="M286.2,273.4c5.4-5.9,7.8-14.5,5.4-19.4c-2.4-4.8-8.7-4-14.1,1.9c-5.4,5.9-7.8,14.5-5.4,19.4
				C274.5,280.1,280.9,279.3,286.2,273.4z"/>
			<path d="M283.8,268.6c5.2-6.7,2.1-13.1-3.8-7.7C274.7,267.5,277.9,273.9,283.8,268.6z"/>
		</g>
	</g>
	<path class="st0" d="M291.5,201c2.1,2.3,2.9,5.5,3.5,8.5l-0.6,6.4c-0.1,1.2-0.7,2.2-1.7,2.9c-3.3,2.3-6.5,4.2-10.1,4.7l-3.8-1.4
		l3-1.8l-0.1-6.4c-1.6-2-3.5-3.4-5.8-3.6l-2,1.3c-0.2-1.9,0.5-4,1.7-4.9l3-3.3l2.2-5.3l9.6-1.4L291.5,201z"/>
	<path class="st9" d="M243.3,146.9c15.8,0.3,32.5,4.2,44.6,11.1c2.1,1.2,3.5,3.3,3.7,5.7c1.5,13.4,1.5,25.7,0.4,37.3
		c0.1,6.7-11.3,6.2-13.3,2.3l-4.5-27.4c-7.4,2.7-22.4-2.1-36.9-6.3L243.3,146.9z"/>
</g>
<g class="st14">
	<g class="st14">
		<path class="st15" d="M343.2,266.1c0-5.7,4.7-10.4,10.4-10.4c5.7,0,10.4,4.7,10.4,10.4c0,5.7-4.7,10.4-10.4,10.4
			C347.9,276.5,343.2,271.8,343.2,266.1z M345.3,266.1c0,4.6,3.7,8.3,8.3,8.3s8.3-3.7,8.3-8.3c0-4.6-3.7-8.3-8.3-8.3
			S345.3,261.5,345.3,266.1z"/>
	</g>
	<g class="st14">
		<path class="st16" d="M32.3,281c0-7.8,6.4-14.2,14.2-14.2c7.8,0,14.2,6.4,14.2,14.2c0,7.8-6.4,14.2-14.2,14.2
			C38.7,295.2,32.3,288.8,32.3,281z M34.4,281c0,6.7,5.4,12.1,12.1,12.1c6.7,0,12.1-5.4,12.1-12.1c0-6.7-5.4-12.1-12.1-12.1
			C39.8,268.9,34.4,274.3,34.4,281z"/>
	</g>
	<g class="st14">
		<path class="st15" d="M25,94.1L52.9,71l6.2,7.5l-27.9,23.1L25,94.1z M52.7,73.9L27.9,94.4l3.5,4.3l24.7-20.5L52.7,73.9z"/>
	</g>
	<g class="st14">
		<path class="st15" d="M33.6,220.1l5.2-8.2l22.3,14.2l-5.2,8.2L33.6,220.1z M39.5,214.8l-3,4.7l18.8,11.9l3-4.7L39.5,214.8z"/>
	</g>
	<g class="st14">
		<path class="st16" d="M348.4,205.9l10.2-42.2l9.4,2.3l-10.2,42.2L348.4,205.9z M360.1,166.3l-9.2,38.1l5.4,1.3l9.2-38.1
			L360.1,166.3z"/>
	</g>
	<g class="st14">
		<path class="st16" d="M297.3,113.1l7.8-13l13,7.8l-7.8,13L297.3,113.1z M305.8,102.9l-5.6,9.4l9.4,5.6l5.6-9.4L305.8,102.9z"/>
	</g>
	<g class="st14">
		<path class="st16" d="M253.4,358.2l7.8-13l13,7.8l-7.8,13L253.4,358.2z M261.9,348l-5.6,9.4l9.4,5.6l5.6-9.4L261.9,348z"/>
	</g>
	<g class="st14">
		<path class="st4" d="M313.3,79.4l23.4-18.5l4.3,29.5L313.3,79.4z M317.4,78.8l21,8.4l-3.3-22.4L317.4,78.8z"/>
	</g>
	<g class="st14">
		<path class="st4" d="M57.2,61.8l9.7,3.3l-7.7,6.8L57.2,61.8z M60,64.9l0.6,2.9l2.3-2L60,64.9z"/>
	</g>
	<g class="st14">
		<path class="st4" d="M148.3,198.2l24.5,0.8l-12.9,20.9L148.3,198.2z M151.8,200.4l8.2,15.3l9.1-14.7L151.8,200.4z"/>
	</g>
	<g class="st14">
		<path class="st4" d="M275.4,345.2L300,346L287,366.9L275.4,345.2z M279,347.4l8.2,15.3l9.1-14.7L279,347.4z"/>
	</g>
	<g class="st14">
		<path class="st16" d="M165.6,74.1c0-9.7,7.9-17.6,17.6-17.6c9.7,0,17.6,7.9,17.6,17.6c0,9.7-7.9,17.6-17.6,17.6
			C173.5,91.6,165.6,83.8,165.6,74.1z M167.7,74.1c0,8.5,6.9,15.5,15.5,15.5c8.5,0,15.5-6.9,15.5-15.5c0-8.5-6.9-15.5-15.5-15.5
			C174.6,58.6,167.7,65.5,167.7,74.1z"/>
	</g>
	<g class="st14">
		<path class="st4" d="M208,79.9c0-3.8,3.1-6.9,6.9-6.9c3.8,0,6.9,3.1,6.9,6.9s-3.1,6.9-6.9,6.9C211,86.7,208,83.6,208,79.9z
			 M210,79.9c0,2.6,2.1,4.8,4.8,4.8s4.8-2.1,4.8-4.8s-2.1-4.8-4.8-4.8S210,77.2,210,79.9z"/>
	</g>
	<g class="st14">
		<path class="st16" d="M165.7,182.1c0-3.6,2.9-6.5,6.5-6.5c3.6,0,6.5,2.9,6.5,6.5s-2.9,6.5-6.5,6.5
			C168.6,188.6,165.7,185.7,165.7,182.1z M167.8,182.1c0,2.4,2,4.4,4.4,4.4c2.4,0,4.4-2,4.4-4.4c0-2.4-2-4.4-4.4-4.4
			C169.8,177.7,167.8,179.7,167.8,182.1z"/>
	</g>
	<g class="st14">
		<path class="st15" d="M341.1,181.1c0-1.9,1.5-3.4,3.4-3.4c1.9,0,3.4,1.5,3.4,3.4s-1.5,3.4-3.4,3.4
			C342.6,184.4,341.1,182.9,341.1,181.1z M343.2,181.1c0,0.7,0.6,1.3,1.3,1.3c0.7,0,1.3-0.6,1.3-1.3c0-0.7-0.6-1.3-1.3-1.3
			C343.7,179.8,343.2,180.4,343.2,181.1z"/>
	</g>
	<g class="st14">
		<path class="st15" d="M299,91.8c0-2.7,2.2-4.9,4.9-4.9c2.7,0,4.9,2.2,4.9,4.9c0,2.7-2.2,4.9-4.9,4.9C301.2,96.6,299,94.5,299,91.8
			z M301.1,91.8c0,1.5,1.2,2.8,2.8,2.8c1.5,0,2.8-1.2,2.8-2.8c0-1.5-1.2-2.8-2.8-2.8C302.3,89,301.1,90.3,301.1,91.8z"/>
	</g>
	<g class="st14">
		<path class="st4" d="M364,245.7h11v11h-11V245.7z M372.9,247.8h-6.8v6.8h6.8V247.8z"/>
	</g>
	<g class="st14">
		<path class="st4" d="M46,200.9h9.7v9.7H46V200.9z M53.6,203h-5.5v5.5h5.5V203z"/>
	</g>
</g>
</svg>
